<svg width="32" height="32" viewBox="0 0 32 32" fill="none" xmlns="http://www.w3.org/2000/svg">
<path d="M15.9 2.2c-.4 0-.8.1-1.1.2-2.5.9-4.8 2.3-6.7 4.2C4.8 9.9 3 14.4 3 19.1c0 3.2.8 6.3 2.4 9.1.3.5.9.8 1.5.8.6 0 1.2-.3 1.5-.8.6-1 1.1-2.1 1.4-3.3.2-.6.3-1.3.4-1.9 0-.3.1-.6.1-.9v-.3c0-.1 0-.2.1-.3v-.1c.3-2.8 1.5-5.4 3.4-7.4.1-.1.2-.2.3-.3.1-.1.2-.2.3-.3.1-.1.2-.2.3-.2.1-.1.2-.2.3-.2l.3-.3c.1-.1.2-.1.2-.2.2-.1.3-.3.5-.4.3-.3.7-.5 1-.8.3-.2.6-.4.9-.6.3-.2.6-.4.9-.5.3-.1.5-.3.8-.4.3-.1.6-.3.9-.4.3-.1.6-.2.9-.3.3-.1.6-.2.9-.2.3-.1.6-.1.9-.1h.2c.2 0 .4 0 .6.1.3 0 .6.1.9.2.3.1.6.2.9.3.3.1.6.2.9.4.3.1.5.3.8.4.3.2.6.3.9.5.3.2.6.4.9.6.3.2.7.5 1 .8.2.1.3.3.5.4.1.1.1.1.2.2l.3.3c.1.1.2.1.3.2.1.1.2.1.3.2.1.1.2.2.3.3.1.1.2.2.3.3 1.9 2 3.1 4.6 3.4 7.4v.1c0 .1 0 .2.1.3v.3c0 .3.1.6.1.9.1.7.2 1.3.4 1.9.3 1.2.8 2.3 1.4 3.3.3.5.9.8 1.5.8.6 0 1.2-.3 1.5-.8 1.6-2.8 2.4-5.9 2.4-9.1 0-4.7-1.8-9.2-5.1-12.7-1.9-1.9-4.2-3.3-6.7-4.2-.3-.1-.7-.2-1.1-.2h-.2z" fill="#10AA50"/>
<path d="M16 20.5c-.3 0-.5.2-.5.5v8c0 .3.2.5.5.5s.5-.2.5-.5v-8c0-.3-.2-.5-.5-.5z" fill="#B8C4C2"/>
<path d="M16 20.5c-.3 0-.5.2-.5.5v8c0 .3.2.5.5.5s.5-.2.5-.5v-8c0-.3-.2-.5-.5-.5z" fill="#12924F"/>
</svg>
